<svg xmlns="http://www.w3.org/2000/svg" width="560" height="700" viewBox="0 0 680 700" role="img">
  <title>Rtractor</title>
  <desc>Hex sticker for the Rtractor R package: white background with a light blue dot grid recalling dotted paper, a dense woven steel-blue and sage strange-attractor motif, thick ink border with a coral accent line, and Rtractor title.</desc>
  <defs>
    <clipPath id="hexclip">
      <polygon points="340,30 610,190 610,510 340,670 70,510 70,190"/>
    </clipPath>
    <pattern id="dotgrid" width="24" height="24" patternUnits="userSpaceOnUse">
      <circle cx="12" cy="12" r="1.6" fill="#9DC1D6" opacity="0.55"/>
    </pattern>
  </defs>
  <polygon points="340,30 610,190 610,510 340,670 70,510 70,190" fill="#FFFFFF" clip-path="url(#hexclip)"/>
  <rect x="70" y="30" width="540" height="640" fill="url(#dotgrid)" clip-path="url(#hexclip)"/>
  <g clip-path="url(#hexclip)">
    <ellipse cx="285" cy="325" rx="150" ry="94" transform="rotate(-34 285 325)" fill="none" stroke="#67A2C5" stroke-width="4"/>
    <ellipse cx="285" cy="325" rx="143" ry="90" transform="rotate(-32 285 325)" fill="none" stroke="#9BCEC1" stroke-width="3.8"/>
    <ellipse cx="285" cy="325" rx="136" ry="85" transform="rotate(-30 285 325)" fill="none" stroke="#67A2C5" stroke-width="3.7"/>
    <ellipse cx="285" cy="325" rx="128" ry="80" transform="rotate(-27 285 325)" fill="none" stroke="#9BCEC1" stroke-width="3.5"/>
    <ellipse cx="285" cy="325" rx="121" ry="76" transform="rotate(-25 285 325)" fill="none" stroke="#67A2C5" stroke-width="3.4"/>
    <ellipse cx="285" cy="325" rx="114" ry="72" transform="rotate(-23 285 325)" fill="none" stroke="#9BCEC1" stroke-width="3.2"/>
    <ellipse cx="285" cy="325" rx="107" ry="67" transform="rotate(-21 285 325)" fill="none" stroke="#67A2C5" stroke-width="3.1"/>
    <ellipse cx="285" cy="325" rx="99"  ry="62" transform="rotate(-19 285 325)" fill="none" stroke="#9BCEC1" stroke-width="2.9"/>
    <ellipse cx="285" cy="325" rx="92"  ry="58" transform="rotate(-16 285 325)" fill="none" stroke="#67A2C5" stroke-width="2.7"/>
    <ellipse cx="285" cy="325" rx="85"  ry="53" transform="rotate(-14 285 325)" fill="none" stroke="#9BCEC1" stroke-width="2.6"/>
    <ellipse cx="285" cy="325" rx="78"  ry="49" transform="rotate(-12 285 325)" fill="none" stroke="#67A2C5" stroke-width="2.4"/>
    <ellipse cx="285" cy="325" rx="70"  ry="44" transform="rotate(-10 285 325)" fill="none" stroke="#9BCEC1" stroke-width="2.3"/>
    <ellipse cx="285" cy="325" rx="63"  ry="40" transform="rotate(-8  285 325)" fill="none" stroke="#67A2C5" stroke-width="2.1"/>
    <ellipse cx="285" cy="325" rx="56"  ry="35" transform="rotate(-5  285 325)" fill="none" stroke="#9BCEC1" stroke-width="2.0"/>
    <ellipse cx="285" cy="325" rx="49"  ry="31" transform="rotate(-3  285 325)" fill="none" stroke="#67A2C5" stroke-width="1.8"/>
    <ellipse cx="285" cy="325" rx="41"  ry="26" transform="rotate(-1  285 325)" fill="none" stroke="#9BCEC1" stroke-width="1.6"/>
    <ellipse cx="285" cy="325" rx="34"  ry="21" transform="rotate(1   285 325)" fill="none" stroke="#67A2C5" stroke-width="1.5"/>
    <ellipse cx="285" cy="325" rx="27"  ry="17" transform="rotate(3   285 325)" fill="none" stroke="#9BCEC1" stroke-width="1.3"/>
    <ellipse cx="285" cy="325" rx="20"  ry="13" transform="rotate(6   285 325)" fill="none" stroke="#67A2C5" stroke-width="1.2"/>
    <ellipse cx="285" cy="325" rx="12"  ry="8"  transform="rotate(8   285 325)" fill="none" stroke="#9BCEC1" stroke-width="1.0"/>
    <ellipse cx="405" cy="345" rx="128" ry="81" transform="rotate(28 405 345)" fill="none" stroke="#67A2C5" stroke-width="3.8" opacity="0.92"/>
    <ellipse cx="405" cy="345" rx="122" ry="77" transform="rotate(26 405 345)" fill="none" stroke="#9BCEC1" stroke-width="3.7" opacity="0.92"/>
    <ellipse cx="405" cy="345" rx="116" ry="74" transform="rotate(23 405 345)" fill="none" stroke="#67A2C5" stroke-width="3.5" opacity="0.92"/>
    <ellipse cx="405" cy="345" rx="109" ry="69" transform="rotate(21 405 345)" fill="none" stroke="#9BCEC1" stroke-width="3.4" opacity="0.92"/>
    <ellipse cx="405" cy="345" rx="103" ry="65" transform="rotate(19 405 345)" fill="none" stroke="#67A2C5" stroke-width="3.2" opacity="0.92"/>
    <ellipse cx="405" cy="345" rx="97"  ry="62" transform="rotate(16 405 345)" fill="none" stroke="#9BCEC1" stroke-width="3.1" opacity="0.92"/>
    <ellipse cx="405" cy="345" rx="91"  ry="58" transform="rotate(14 405 345)" fill="none" stroke="#67A2C5" stroke-width="2.9" opacity="0.92"/>
    <ellipse cx="405" cy="345" rx="85"  ry="54" transform="rotate(12 405 345)" fill="none" stroke="#9BCEC1" stroke-width="2.8" opacity="0.92"/>
    <ellipse cx="405" cy="345" rx="78"  ry="50" transform="rotate(10 405 345)" fill="none" stroke="#67A2C5" stroke-width="2.7" opacity="0.92"/>
    <ellipse cx="405" cy="345" rx="72"  ry="46" transform="rotate(7   405 345)" fill="none" stroke="#9BCEC1" stroke-width="2.5" opacity="0.92"/>
    <ellipse cx="405" cy="345" rx="66"  ry="42" transform="rotate(5   405 345)" fill="none" stroke="#67A2C5" stroke-width="2.4" opacity="0.92"/>
    <ellipse cx="405" cy="345" rx="60"  ry="38" transform="rotate(3   405 345)" fill="none" stroke="#9BCEC1" stroke-width="2.2" opacity="0.92"/>
    <ellipse cx="405" cy="345" rx="54"  ry="34" transform="rotate(0   405 345)" fill="none" stroke="#67A2C5" stroke-width="2.1" opacity="0.92"/>
    <ellipse cx="405" cy="345" rx="47"  ry="30" transform="rotate(-2  405 345)" fill="none" stroke="#9BCEC1" stroke-width="1.9" opacity="0.92"/>
    <ellipse cx="405" cy="345" rx="41"  ry="26" transform="rotate(-4  405 345)" fill="none" stroke="#67A2C5" stroke-width="1.8" opacity="0.92"/>
    <ellipse cx="405" cy="345" rx="35"  ry="22" transform="rotate(-7  405 345)" fill="none" stroke="#9BCEC1" stroke-width="1.7" opacity="0.92"/>
    <ellipse cx="405" cy="345" rx="29"  ry="18" transform="rotate(-9  405 345)" fill="none" stroke="#67A2C5" stroke-width="1.5" opacity="0.92"/>
    <ellipse cx="405" cy="345" rx="23"  ry="15" transform="rotate(-11 405 345)" fill="none" stroke="#9BCEC1" stroke-width="1.4" opacity="0.92"/>
    <ellipse cx="405" cy="345" rx="16"  ry="10" transform="rotate(-14 405 345)" fill="none" stroke="#67A2C5" stroke-width="1.2" opacity="0.92"/>
    <ellipse cx="405" cy="345" rx="10"  ry="6"  transform="rotate(-16 405 345)" fill="none" stroke="#9BCEC1" stroke-width="1.1" opacity="0.92"/>
    <circle cx="514" cy="364" r="7" fill="#FFB6A6"/>
  </g>
  <g>
    <g transform="translate(201.000 536.0) scale(0.062000 -0.062000)"><path d="M45 0V700H307Q391 700 446.5 671.0Q502 642 529.0 593.5Q556 545 556 486Q556 430 529.5 381.5Q503 333 447.5 303.5Q392 274 305 274H180V0ZM408 0 264 308H410L562 0ZM180 372H298Q360 372 389.0 402.0Q418 432 418 481Q418 530 389.0 558.5Q360 587 298 587H180Z" fill="#23475C"/></g>
    <g transform="translate(235.774 536.0) scale(0.062000 -0.062000)"><path d="M266 0Q213 0 173.5 16.5Q134 33 112.0 71.5Q90 110 90 177V388H5V496H90L105 631H225V496H357V388H225V175Q225 139 240.0 125.5Q255 112 291 112H354V0Z" fill="#23475C"/></g>
    <g transform="translate(257.218 536.0) scale(0.062000 -0.062000)"><path d="M40 0V496H155L167 387H171Q193 440 219.0 465.5Q245 491 278.5 499.5Q312 508 354 508V365H317Q283 365 256.5 357.5Q230 350 212.0 333.5Q194 317 184.5 290.0Q175 263 175 225V0Z" fill="#23475C"/></g>
    <g transform="translate(278.476 536.0) scale(0.062000 -0.062000)"><path d="M202 -12Q143 -12 104.5 8.0Q66 28 48.0 62.0Q30 96 30 137Q30 183 53.5 218.0Q77 253 125.0 272.5Q173 292 246 292H371Q371 329 360.5 353.0Q350 377 328.5 389.0Q307 401 274 401Q235 401 207.5 383.5Q180 366 173 329H42Q48 384 78.5 424.0Q109 464 159.5 486.0Q210 508 274 508Q346 508 398.0 484.5Q450 461 478.0 415.5Q506 370 506 305V0H394L380 77H376Q360 55 341.5 38.0Q323 21 301.0 10.0Q279 -1 254.0 -6.5Q229 -12 202 -12ZM246 92Q274 92 294.5 101.5Q315 111 330.0 127.0Q345 143 353.5 164.5Q362 186 365 209H261Q230 209 210.5 201.5Q191 194 182.0 180.5Q173 167 173 149Q173 131 182.0 118.0Q191 105 208.0 98.5Q225 92 246 92Z" fill="#23475C"/></g>
    <g transform="translate(311.018 536.0) scale(0.062000 -0.062000)"><path d="M286 -12Q207 -12 148.5 21.5Q90 55 57.5 113.5Q25 172 25 248Q25 324 58.0 382.5Q91 441 150.0 474.5Q209 508 286 508Q382 508 447.5 458.0Q513 408 531 320H388Q380 356 351.5 376.0Q323 396 285 396Q250 396 222.5 378.5Q195 361 179.0 328.0Q163 295 163 248Q163 214 172.0 187.0Q181 160 197.0 141.0Q213 122 235.5 112.5Q258 103 285 103Q311 103 332.0 111.5Q353 120 368.0 136.5Q383 153 388 176H531Q513 90 447.5 39.0Q382 -12 286 -12Z" fill="#23475C"/></g>
    <g transform="translate(344.490 536.0) scale(0.062000 -0.062000)"><path d="M266 0Q213 0 173.5 16.5Q134 33 112.0 71.5Q90 110 90 177V388H5V496H90L105 631H225V496H357V388H225V175Q225 139 240.0 125.5Q255 112 291 112H354V0Z" fill="#23475C"/></g>
    <g transform="translate(365.934 536.0) scale(0.062000 -0.062000)"><path d="M280 -12Q208 -12 150.0 21.0Q92 54 58.5 113.0Q25 172 25 248Q25 325 59.0 383.5Q93 442 151.0 475.0Q209 508 280 508Q352 508 410.0 475.0Q468 442 501.5 383.5Q535 325 535 248Q535 171 501.0 112.5Q467 54 409.5 21.0Q352 -12 280 -12ZM279 102Q312 102 338.5 118.0Q365 134 381.0 166.5Q397 199 397 248Q397 297 381.0 329.5Q365 362 338.5 378.0Q312 394 281 394Q249 394 222.0 378.0Q195 362 179.0 329.5Q163 297 163 248Q163 199 179.0 166.5Q195 134 221.5 118.0Q248 102 279 102Z" fill="#23475C"/></g>
    <g transform="translate(399.654 536.0) scale(0.062000 -0.062000)"><path d="M40 0V496H155L167 387H171Q193 440 219.0 465.5Q245 491 278.5 499.5Q312 508 354 508V365H317Q283 365 256.5 357.5Q230 350 212.0 333.5Q194 317 184.5 290.0Q175 263 175 225V0Z" fill="#23475C"/></g>
  </g>
  <g transform="translate(201.000 536.0) scale(0.062000 -0.062000)"><path d="M45 0V700H307Q391 700 446.5 671.0Q502 642 529.0 593.5Q556 545 556 486Q556 430 529.5 381.5Q503 333 447.5 303.5Q392 274 305 274H180V0ZM408 0 264 308H410L562 0ZM180 372H298Q360 372 389.0 402.0Q418 432 418 481Q418 530 389.0 558.5Q360 587 298 587H180Z" fill="#FFB6A6"/></g>
  <polygon points="340,30 610,190 610,510 340,670 70,510 70,190" fill="none" stroke="#23475C" stroke-width="22"/>
  <polygon points="340,30 610,190 610,510 340,670 70,510 70,190" fill="none" stroke="#FFB6A6" stroke-width="5"/>
</svg>
